<?xml version="1.0" encoding="utf-8"?>
<svg version="1.0" width="758.000000pt" height="758.000000pt" viewBox="0 0 758.000000 758.000000" preserveAspectRatio="xMidYMid meet" xmlns="http://www.w3.org/2000/svg">
  <g transform="translate(0.000000,758.000000) scale(0.100000,-0.100000)" fill="#000000" stroke="none">
    <path d="M4815 7133 c-488 -20 -922 -90 -1234 -198 -239 -83 -405 -198 -478 -329 l-28 -51 -3 -827 -2 -827 -1093 -3 -1092 -3 -65 -23 c-173 -63 -288 -181 -340 -351 -20 -62 -20 -102 -20 -1790 0 -1918 -5 -1765 67 -1904 65 -123 199 -222 342 -253 99 -21 4233 -21 4333 0 180 39 330 175 390 355 22 65 22 77 26 718 l3 652 32 5 c18 3 73 10 122 16 351 44 674 126 881 224 169 80 281 172 340 278 l29 53 0 1835 0 1835 -28 55 c-68 133 -235 250 -478 335 -419 146 -1087 223 -1704 198z m770 -328 c499 -45 968 -174 1113 -308 12 -11 22 -28 22 -38 0 -47 -171 -141 -370 -203 -354 -111 -752 -160 -1300 -160 -545 -1 -945 49 -1300 160 -199 62 -370 156 -370 203 0 40 103 106 256 165 265 102 679 175 1139 200 144 8 646 -4 810 -19z m-2075 -792 c368 -147 903 -225 1540 -225 658 0 1214 84 1573 238 45 20 88 38 95 41 9 4 12 -79 12 -398 l0 -403 -44 -41 c-108 -100 -423 -205 -796 -265 -285 -45 -426 -54 -840 -54 -425 0 -574 10 -860 58 -367 62 -648 154 -767 252 l-43 35 0 410 0 410 28 -15 c15 -7 61 -27 102 -43z m3220 -1530 l0 -397 -44 -41 c-132 -123 -504 -242 -921 -295 -49 -6 -102 -13 -117 -16 l-26 -5 -5 363 c-4 367 -9 417 -46 487 -7 12 -10 25 -8 28 3 2 54 9 114 14 337 30 728 119 951 218 48 21 90 39 95 40 4 1 7 -178 7 -396z m-1577 96 c47 -13 102 -60 130 -113 21 -39 22 -55 25 -328 l3 -288 -2276 0 -2276 0 3 288 c3 272 4 289 25 327 28 53 72 93 119 110 33 12 380 14 2124 15 1425 0 2097 -3 2123 -11z m1577 -1244 l0 -365 -34 -37 c-106 -118 -469 -238 -896 -297 -63 -9 -130 -19 -148 -22 l-32 -5 2 408 3 408 35 3 c81 6 344 45 455 68 215 44 384 96 535 167 41 20 76 36 78 36 1 1 2 -163 2 -364z m-5300 -5 l0 -220 -335 0 -335 0 0 220 0 220 335 0 335 0 0 -220z m970 0 l0 -220 -335 0 -335 0 0 220 0 220 335 0 335 0 0 -220z m970 0 l0 -220 -330 0 -330 0 -2 158 c-1 86 -2 185 -2 219 l-1 63 333 0 332 0 0 -220z m970 0 l0 -220 -330 0 -330 0 0 220 0 220 330 0 330 0 0 -220z m970 0 l0 -220 -330 0 -330 0 0 220 0 220 330 0 330 0 0 -220z m-3880 -750 l0 -220 -335 0 -335 0 0 220 0 220 335 0 335 0 0 -220z m970 0 l0 -220 -335 0 -335 0 0 220 0 220 335 0 335 0 0 -220z m970 0 l0 -220 -330 0 c-181 0 -330 3 -331 8 -4 27 -6 409 -2 419 4 10 77 13 334 13 l329 0 0 -220z m970 0 l0 -220 -330 0 -330 0 0 220 0 220 330 0 330 0 0 -220z m970 0 l0 -220 -330 0 -330 0 0 220 0 220 330 0 330 0 0 -220z m-3880 -750 l0 -220 -335 0 -335 0 0 220 0 220 335 0 335 0 0 -220z m970 0 l0 -220 -335 0 -335 0 0 220 0 220 335 0 335 0 0 -220z m970 0 l0 -220 -330 0 -330 0 0 220 0 220 330 0 330 0 0 -220z m970 0 l0 -220 -330 0 -330 0 0 220 0 220 330 0 330 0 0 -220z m970 0 l0 -220 -330 0 -330 0 0 220 0 220 330 0 330 0 0 -220z m-3880 -740 l0 -220 -245 0 c-267 0 -292 4 -348 58 -59 55 -71 94 -75 245 l-4 137 336 0 336 0 0 -220z m970 0 l0 -220 -335 0 -335 0 0 220 0 220 335 0 335 0 0 -220z m970 0 l0 -220 -333 0 -334 0 2 113 c2 61 3 160 4 220 l1 107 330 0 330 0 0 -220z m970 0 l0 -220 -330 0 -330 0 0 220 0 220 330 0 330 0 0 -220z m968 83 c-3 -133 -4 -140 -34 -193 -25 -43 -42 -61 -84 -82 l-52 -28 -244 0 -244 0 0 220 0 220 331 0 331 0 -4 -137z" style="fill: rgb(13, 110, 253);"/>
  </g>
</svg>